<svg width="104" height="52" xmlns="http://www.w3.org/2000/svg" xmlns:xlink="http://www.w3.org/1999/xlink"><view viewBox="0 0 52 52"/><svg width="52" height="52" viewBox="-10 -10 52 52" xmlns="http://www.w3.org/2000/svg"><path d="M4.292 15.708l6 6a1 1 0 001.414-1.414L7.414 16H22c4 0 6 3.692 6 7a1 1 0 002 0c0-4.412-2-9-8-9H7.414l4.292-4.292a1 1 0 00-1.414-1.414l-6 6a1 1 0 000 1.414z"/></svg><view viewBox="52 0 52 52"/><svg width="52" height="52" viewBox="-10 -10 52 52" x="52" xmlns="http://www.w3.org/2000/svg"><path d="M17 32c8.284 0 15-6.716 15-15S25.284 2 17 2 2 8.716 2 17s6.716 15 15 15zM9.804 18.786L16.29 12.3a.997.997 0 01.71-.292c.258 0 .514.096.71.292l6.486 6.486a1 1 0 01-1.414 1.414L17 14.418 11.218 20.2a1 1 0 01-1.414-1.414z"/></svg></svg>